# xmcd
#
# Track frame offsets:
#	150
#	34400
#	53619
#	73124
#	95294
#	128998
#	150948
#	165403
#	181783
#	198112
#	222433
#	244673
#	265520
#	283897
#	301629
#	321818
#
# Disc length: 4514
#
# Revision: 1
# Processed by: cddbd v1.5.1PL0 Copyright (c) Steve Scherf et al.
# Submitted via: EasyCDDAExtractor 4.6.0.1
# Normalized: r0:TDELIM( - )
#
DISCID=d111a010
DTITLE=Jay's Mix 29
DYEAR=2001
DGENRE=Other
TTITLE0=Filter - Welcome To The Fold
TTITLE1=Drowning Pool - Tear Away
TTITLE2=Ja Rule - Furious
TTITLE3=Jagged Edge - Where The Party At (remix)
TTITLE4=Sarina Paris - Look At Us Now
TTITLE5=Smashing Pumpkins - Eye
TTITLE6=Sum 41 - Makes No Difference
TTITLE7=System Of A Down - Spiders
TTITLE8=Buckcherry - Lit Up
TTITLE9=Eminem - Under The Influence
TTITLE10=Fabulous - You Can't Deny It
TTITLE11=Missy Elliot (f. Ludicris) - One Minute Man
TTITLE12=LeAnn Womack - I Hope You Dance
TTITLE13=Papa Roach - Between Angels And Insects
TTITLE14=Barenaked Ladies - If I Had A Million Dollars
TTITLE15=Barenaked Ladies - Achohol
EXTD=Mixed by: Jay Schmeltz\n
EXTT0=
EXTT1=
EXTT2=
EXTT3=
EXTT4=
EXTT5=
EXTT6=
EXTT7=
EXTT8=
EXTT9=
EXTT10=
EXTT11=
EXTT12=
EXTT13=
EXTT14=
EXTT15=
PLAYORDER=
